<svg id="Layer_1" data-name="Layer 1" xmlns="http://www.w3.org/2000/svg" viewBox="0 0 608 190"><defs><clipPath id="clippath"><path class="cls-1" d="M0 0h608v190H0z"/></clipPath><clipPath id="clippath-1"><path class="cls-1" d="M146 110c0-15.464 12.536-28 28-28s28 12.536 28 28-12.536 28-28 28-28-12.536-28-28m-32 0v80h32v-26.934A59.715 59.715 0 00174 170c33.137 0 60-26.863 60-60s-26.863-60-60-60-60 26.863-60 60m156 0c0-15.464 12.536-28 28-28s28 12.536 28 28-12.536 28-28 28-28-12.536-28-28m-32 0c0 33.137 26.863 60 60 60a59.715 59.715 0 0028-6.934V170h32v-60c0-33.137-26.863-60-60-60s-60 26.863-60 60m164-60c-20.953 0-38 17.047-38 38s17.047 38 38 38h22c3.308 0 6 2.691 6 6s-2.692 6-6 6h-58v32h58c20.953 0 38-17.047 38-38s-17.047-38-38-38h-22c-3.309 0-6-2.691-6-6s2.691-6 6-6h42c8.837 0 16-7.164 16-16s-7.163-16-16-16h-42zm102 0c-20.953 0-38 17.047-38 38s17.047 38 38 38h22c3.309 0 6 2.691 6 6s-2.691 6-6 6h-58v32h58c20.953 0 38-17.047 38-38s-17.047-38-38-38h-22c-3.308 0-6-2.691-6-6s2.692-6 6-6h42c8.837 0 16-7.164 16-16s-7.163-16-16-16h-42zm68 120h32V49.999h-32V170zM0 110c0 34.187 27.813 62 62 62 16.561 0 32.13-6.449 43.84-18.159l-22.627-22.627C77.548 136.88 70.014 140 62 140c-16.542 0-30-13.458-30-30s13.458-30 30-30c2.262 0 4.485.249 6.639.733L50.686 98.686A15.954 15.954 0 0046 110c0 8.837 7.164 16 16 16 4.418 0 8.419-1.791 11.313-4.686l35.042-35.042A12.407 12.407 0 00112 77.474c0-3.437-1.394-6.548-3.645-8.799l-2.514-2.515C94.13 54.449 78.56 48 62 48 27.813 48 0 75.813 0 110m568-90c0 11.046 8.954 20 20 20 11.045 0 20-8.954 20-20s-8.955-20-20-20c-11.046 0-20 8.954-20 20"/></clipPath><linearGradient id="linear-gradient" x1="-229.507" y1="-491.004" x2="-228.507" y2="-491.004" gradientTransform="matrix(0 120.43514 120.43514 0 59438.09 27690.668)" gradientUnits="userSpaceOnUse"><stop offset="0" stop-color="#ff612f"/><stop offset="1" stop-color="#e5007d"/></linearGradient><style>.cls-1{fill:none}</style></defs><g clip-path="url(#clippath)"><g clip-path="url(#clippath-1)"><path fill="url(#linear-gradient)" d="M0 0h608v190H0z"/></g></g></svg>