<?xml version="1.0" encoding="UTF-8"?>
<svg id="Layer_2" data-name="Layer 2" xmlns="http://www.w3.org/2000/svg" viewBox="0 0 721 919.42">
  <g id="Layer_1-2" data-name="Layer 1">
    <g>
      <path d="M498.98,362.89c-4.26-9.09-25.04-45.76-30.29-51.98-6.11-7.24-12.05-13.93-18.89-20.63-19.24-18.86-44.06-31.4-70.28-37.14-29.74-6.51-60.14-2.52-87.4,10.76-23.24,11.33-45.73,32.33-58.69,54.88-16.72,29.08-26.06,60.55-30.42,93.91-3.66,27.95-3.26,49.48,3.7,77.27l3.41,13.63,5.34,18.67,4.32,14.89,4.3,15.33,4.2,16.83,2.92,15.01,2.39,13.38c1.18,6.62,3.25,22.06-2,27.48-2.47,2.56-8.07,3.71-12.46,3.62s-10.13-6.14-10.54-11.6c-1.79-24.23-6.54-47.07-13.51-70.68l-5.44-18.41-4.49-15.9-2.76-10.39c-6.23-23.48-9.62-46.39-7.75-70.67,2.92-37.91,10.29-74.84,27.18-108.78,9.99-20.08,32.02-51.52,50.01-63.98l18.93-13.11c8.56-5.93,26.36-12.68,37.05-15.75,37.01-10.64,74.25-6.82,109.45,7.65,15.97,6.56,29.45,16.48,43.32,27.07,14.97,11.43,32.03,33.35,41.56,49.58l8.31,14.15,10.19,19.09c3.71,6.96,7.18,14.51,10.33,22.02l7.04,16.77c2.55,6.08,4.85,12.28,6.85,18.45l5.16,15.94,4.72,16.12,3.89,15.34,3.56,15.24,3.51,17.11,2.65,14.38,8.93,59.38,7.17,60.89,1.98,14.91c.82,6.16,2.09,13.56-.34,19.5-3.11,7.59-16.22,9.61-21.21,3.06-5.04-6.61-4.83-15.79-5.72-23.72l-8.11-72.33-8.21-54.42c-.67-4.43-1.53-9.26-2.47-13.66l-3.43-16.09-3.59-15.7-3.4-13.75c-1.51-6.1-3.27-12.38-5.28-18.42l-5.64-17.01-5.62-15.19c-2.7-7.29-5.78-14.54-9.04-21.51l-5.39-11.49Z"/>
      <path d="M339.51,478.58l4.31,16.22,4.58,17.35,3.3,13.59,3.88,16.98,3.32,15.07c6.87,31.19,9.48,61.71,10.49,93.17.16,4.94.16,12.06-3.59,15.93-1.99,2.06-8.12,4.06-10.86,4.15-9.22-1.72-12.49-10.84-12.44-19.35.11-17.63-1.17-43.97-4.27-60.69l-5.07-27.3-2.76-12.86-3.69-15.89-3.74-15.93-3.39-13.16c-4.9-19.04-11.32-37.39-11.97-57.04s7.61-38.47,23.47-49.09,33.99-9.76,49.95-1.01c22.33,12.25,39.41,37.9,46.1,62.25,24.13,87.74,33.15,179.03,27.18,270.13-3.75,57.25-18.01,128.3-43.11,179.73-3.45,7.07-11,10.68-17.47,7.26-7.3-3.87-9.6-10.82-6.03-18.82,41.53-93.3,50.15-219.31,35.88-318.93l-6.47-45.19-3.54-18.31-7.6-34.09c-4.43-19.86-19.15-54.53-39.27-61.93-14.16-5.2-26.21,1.44-30.22,13.22-3.54,10.39-2.81,19.96-.39,30.08l3.44,14.46Z"/>
      <path d="M618.43,437.79l-4.34-15.97-5.35-18.2-5.11-16.07-5.83-16.48c-2.1-5.92-4.33-11.5-6.72-17.15l-9.22-21.79c-2.21-5.21-4.56-10.1-7.14-15.05l-10.05-19.32-18.34-30.6c-3.73-6.22-8.14-11.52-12.36-17.44l-6.98-9.77c-4.97-6.96-10.42-12.59-16.02-19.01-21.3-24.4-44.33-46.12-73.77-60.57-40.47-19.85-82.26-26.9-127.01-19.6-7.23,1.18-13.53-1.02-17.17-6.76-2.62-4.14-2.33-16.14,4.46-17.64,49.2-10.82,99.9-3.93,144.86,17.26,50.82,23.95,87.71,64.46,119.59,109.46,5.13,7.24,9.9,14.44,14.39,22.21l12.3,21.3,10.01,19.52,10.21,21.79c22.54,48.12,35.93,99.19,45.94,151.77,15.39,80.79,20.45,162.18,19.36,244.03-.07,4.95-.54,10.2-3.71,13.7-4.25,4.69-12.55,4.15-16.46,1.48-6.65-4.54-6.41-10.3-6.3-17.54,1.08-69.59-2.1-138.43-13.51-207.08l-2.99-18.01-2.42-12.79-3.21-15.38-3.9-17.14-3.2-13.18Z"/>
      <path d="M495.74,877.51c31.33-109.62,29.78-263.66,6.64-372.44l-3.9-18.35-2.65-11.57c-5.68-24.84-14.59-53.86-24.58-77.11-6.72-15.65-14.17-28.08-24.3-41.58-16.44-21.9-36.89-37.93-63.84-45.32-25.44-6.97-54-5.49-76.39,9.42-6.15,4.09-11.49,7.52-18.99,2.99-5.15-3.11-8.74-12.57-3.06-18.93,4.2-4.7,12.04-9.84,18.38-12.87,28.56-13.68,60.93-14.02,90.69-5.22,20.96,6.19,38.67,18.41,55.19,32.66,23.36,20.14,44.12,58.04,54.06,87.01l6.36,18.56,5.3,17.41,3.91,14.62,4.51,17.59c28.98,112.97,32.28,291.73-1.13,406.87-1.73,5.96-5.05,10.51-11.64,11.94-7.56,1.64-17.06-6.91-14.55-15.68Z"/>
      <path d="M690.04,615.89l-2.52-24.03c-6.36-60.6-13.67-120.49-30.14-179.28l-4.34-15.5-4.9-16.16-5.58-16.93-6.66-18.67-5.76-15.07-8.84-20.73-9.4-20.08c-2.65-5.67-5.38-11.02-8.48-16.38l-14.46-25.07c-5.94-10.29-23.7-35.56-31.21-44.3l-22.15-25.81c-4.27-4.97-9.75-8.92-14.56-13.47-32.7-30.98-77.09-58.67-120.02-72.7l-12.79-4.18c-5.71-1.87-10.93-6.52-12.06-12.41-.97-5.02,5.08-14.91,11.27-14.26,15.65,1.64,30.17,8.38,44.92,14.47,47.28,19.51,88.62,48.16,123.2,85.77,8.11,8.82,15.81,16.46,23.05,26.03l16.2,21.45,13.01,19.26c3.04,4.5,5.82,9.43,8.51,14.2l12.17,21.6,7.02,13.78,6.19,13.01,9.11,20.62,6.45,15.87,4.81,12.6,5.13,14.48,5.54,16.87,5.85,19.4,3.62,13.07,4.62,17.63c16.52,63,24.68,127.42,28.87,192.39.44,6.88-6.76,11.17-12.25,11.45-4.62.24-12.67-1.66-13.43-8.92Z"/>
      <path d="M594.45,535.1l-2.36-13.88-2.44-12.77-3.52-16.65-3.27-14.45-3.96-16.22-4.69-17.69-4.02-13.76-5.63-18.09-5.01-14.92-7.16-19.48-6.81-16.99-8.49-19.4-9.26-19.1c-7.16-14.77-18.84-33.98-28.6-46.86-5-6.6-5.83-14.99-.32-19.52,6.72-5.53,15.74-5.63,20.73,1.89l9.63,14.51c4.58,6.9,8.91,13.58,12.88,20.99l10.67,19.9,10.52,21.97c2.25,4.71,4.3,9.49,6.31,14.54l8.73,21.89,5.65,15.49,6.06,17.9,5.61,18.12c18.28,59.01,28.32,118.82,34.04,180.54,5.91,63.78,4.82,126.58-2.66,190.06-.7,5.93-1.42,11.73-6.09,15.59-3.82,3.16-11.4,2.73-15.24-.32s-6.39-7.74-5.61-13.77c11.05-86.23,9.06-172.99-5.68-259.54Z"/>
      <path d="M294.56,417.02c-3.45,15.23-4.77,30.17-1.63,45.72l21.97,108.94c1.48,7.34,3.89,15.4-2.14,20.93-3.21,2.95-9.05,5.28-12.41,4.06-4.63-1.68-8.46-5.33-9.46-10.27l-2.88-14.32-2.65-13.93-2.84-14.01-3.67-17.16-3.22-15.17-2.96-14.16-2.93-14.7-2.99-17.21c-6.89-39.64,4.65-87.77,38.41-113.31,8.37-6.33,16.09-11.25,26.06-14.51,15.38-5.03,31.78-5.78,47.48-1.64,38.05,10.02,64.63,43.24,79.63,78.04,2.43,5.65,4.84,11.13,6.69,17.1l5.94,19.08,3.44,12.3c4.68,16.73,8.35,33.29,11.06,50.27l4.24,26.57c.93,5.83-1.83,11.2-6.53,13.92s-9.89,2.77-13.86-.13c-5.27-3.85-5.59-8.39-6.51-14.67-5.61-38.35-13.53-75.5-27.54-111.4-3.45-8.83-7.84-16.46-12.51-24.2-7.61-12.62-16.06-22.37-28.25-30.78-15.21-10.49-34.6-15.64-52.62-9.73-7.16,2.35-15.1,5.45-20.25,10.22-13.21,12.24-23.02,26.43-27.04,44.16Z"/>
      <path d="M35.98,257.43c-6.71-6.65-5.65-13.93-2.85-20.81l15.1-37.04c8.16-20,28.97-54.84,41.96-71.66l13.55-17.53c24.23-31.37,71.23-67.95,107.69-83.18l20.74-8.67c4.72-1.97,9.59-3.67,14.75-5.04l17.69-4.71c49.46-13.16,100.98-10.79,150.53,2.05,13.57,3.51,27.26,6.31,38.47,13.51,7.06,4.54,5.48,13.72,1.15,18.52-5.01,5.56-11.47,4.5-18.28,2.09-88.52-31.45-182.91-22.07-259.97,33.15-10.33,7.4-19.03,15.04-28.39,23.73-45.91,42.69-72.02,93.69-93.06,152.39-2.37,6.62-14.88,7.35-19.08,3.19Z"/>
      <path d="M203.18,841.86l22.25-43.46c29.28-57.19,32.37-132.01,21.61-194.62l-4.74-27.55-14.94-79.92c-3.5-18.75-6.35-52.17-6.12-70.56.32-25.81,5.14-50.94,17.65-73.4,2.64-4.74,11.63-5.38,15.1-3.15s10.23,8.01,8.09,13.03c-9.24,21.64-15.01,43.36-14.49,67.06.62,28.75,4.19,56.61,9.69,85.04l8.68,44.88c15.39,79.61,22.19,145.63-5.58,223.22-8.98,25.08-20.67,48.13-34.35,71.36-3.24,2.74-11.55,3.89-15.19,2.4s-9.91-9.94-7.65-14.34Z"/>
      <path d="M99.49,594.33c7.37,33.48,5.93,63.37-6.33,95.22-2.23,5.79-4.94,10.61-10.73,11.87-5.8,1.26-11.84.54-15.16-5.99-7.75-15.24,21.89-31.4,5.24-101.43l-3.3-13.88-3.66-14.27-4.34-16.74-4.44-18.16-2.74-12.44-4.75-26.4c-2.09-11.63-3.42-22.79-4.07-35.41-3.85-75.21,7.59-150.14,36.26-219.52,4.35-10.53,9.53-19.58,14.32-29.4,3.16-6.47,11.01-10.13,16.36-7.86,7.52,3.18,11.87,10.15,7.82,17.99-17.93,34.71-30.97,70.99-38.61,109.38-12.86,64.64-15.26,127.55-.28,191.87l2.58,11.1,4.3,16.69,4.42,17.13,4.08,16.42,3.04,13.82Z"/>
      <path d="M401.49,777.86c-9.55,46-23.08,89.77-40.73,132.99-1.58,3.88-6.88,6.76-9.89,7.51-3.48.87-9.45-1.45-12.07-4.31-5.7-6.23-1.6-14.02.73-20.64l15.42-43.8,10.01-33.21c32.46-107.66,29.96-225.08-3.35-332.9l-5.95-19.25c-1.91-6.19-1.97-11.16,2.99-16.78,2.89-3.27,9.45-4.02,15.03-1.14,6.73,3.47,7.69,11.79,9.86,18.76l4.96,15.91,4.94,17.77,3.68,14.46,3.65,16.24,2.89,14.27,2.77,14.97,1.72,11.98c9.99,69.4,7.61,138.35-6.67,207.17Z"/>
      <path d="M720.11,410.41c-2.37,7.15-8.38,8.37-13.69,7.37-5.91-1.11-9.45-4.69-10.95-11.37l-6.54-29.05-4.8-19.13-3.51-13.26-4.69-16.02-5.12-16.13-6.52-18.5-6.24-16.2-8.44-19.88c-6.75-15.88-25.2-49.88-35.14-63.83l-13.4-18.84c-4.1-5.77-8.47-10.89-13.15-16.22-12.58-14.35-24.42-28.33-39.18-40.62-17.61-14.67-34.1-29-53.26-42.1-6.66-4.56-14.76-9.96-12.17-19.65,1-3.75,5.57-8.27,8.9-9.13,4.23-1.1,10.56.86,14.25,3.54l21.29,15.46c13.23,9.6,25.59,19.66,37.34,31.14l30.74,30.03c6.79,6.63,12.16,14.77,18.46,22.13,7.52,8.78,14.06,17.51,20.36,27.43l13.62,21.4c4.52,7.1,8.31,14.07,12.06,21.54l10.29,20.53,9.06,20.29,5.66,14.15,7.95,21.31c1.72,4.61,3.18,9.23,4.63,14.03l5.53,18.2,4.28,15.23,4.03,15.44,4.18,17.03,2.72,12.81c1.37,6.43,3.61,14.35,1.45,20.88Z"/>
      <path d="M102.44,460.27c-4.41,1.09-15.26-2.5-15.38-8.86-.85-45.79,4.56-90.63,16.54-134.6,8.71-31.98,21.48-61.01,38.89-88.82,12.13-19.37,26.66-35.53,43.17-51.09,6.15-5.79,11.63-11.49,18.7-16.28,12.57-8.52,27.04-22.95,37.37-20.65,5.46,1.21,9.37,6.94,9.78,10.9.64,6.24-1.75,11.45-7.62,14.55-7.74,4.1-14.58,9.29-21.36,14.8-10.26,8.33-20.21,15.77-29.08,25.45-28.2,30.8-48.65,65.67-60.94,105.66-12.93,42.05-18.48,84.68-19.22,129.07-.14,8.12-1.14,17.44-10.84,19.85Z"/>
      <path d="M141.09,789.99c-7.26.94-17.6-8.55-14.03-15.5l17.67-34.33c22.01-42.76,28.75-90.2,17.59-137.19l-12.18-51.29-3.65-14.47-3.58-14.67-3.42-16.33c-.97-4.65-1.9-9.19-2.51-14.03l-1.79-14.08-1.5-14.17c-.6-5.69.67-10.98,4.5-14.59s11.1-3.1,15.64-.91c5.39,2.61,6.01,7.89,6.48,13.96,1.1,14.28,3.04,29.78,6.06,43.46l3.38,15.33,3.99,16.54,3.45,13.27c8.37,32.2,16.64,64.08,15.95,97.41l-.2,9.56c-.9,43.51-16.5,84.48-39.48,121.34-2.92,4.68-5.87,9.84-12.38,10.68Z"/>
      <path d="M41.86,546.11c2.42,11.94,9.32,38.63,13.31,49.71l6.24,17.34c2.04,5.65,5.2,9.9,3.03,16.04-1.5,4.24-6.58,9.22-11.73,9.08-7.38-.2-10.57-3.77-13.19-9.23-5.37-11.2-9.87-24.98-13.36-37.23C11.9,541.69,3.71,490.76.87,438.53c-2.29-42.16-.33-82.83,9.38-123.72,2.25-9.49,8.19-18.48,18.18-16.7,2.9.52,8,4.41,8.99,6.87,1.86,4.61.31,10.71-.94,15.45-8.48,32.22-11.13,64.78-9.74,97.97l1.12,26.65c.66,15.85,2.36,31.46,4.68,47.04l4.1,27.56,2.49,12.88,2.75,13.58Z"/>
      <path d="M150.42,394.19c-4.69,1.11-14.89-5.1-14.14-11.61,2.13-18.48,7.53-36.01,13.04-53.76,3.77-12.12,8.78-23.64,13.51-35.63,5.82-14.76,13.91-27.37,22.62-40.44,19.72-29.6,53.28-56.99,85.58-70.76l17.79-7.59c7.68-3.28,15.27-2.41,19.55,5.06,3.69,6.44,1.49,15.23-6.77,18.57l-16.79,6.79c-6.56,2.65-12.93,5.65-18.79,9.38l-11.84,7.53c-7.94,5.05-14.22,10.45-21.1,16.72-21.48,19.54-36.12,43.2-47.83,69.9-10.57,24.11-16.99,49.01-23.08,74.71-1.38,5.81-4.62,9.44-11.76,11.13Z"/>
      <path d="M268.39,880.81c-1.64,2.96-9.28,5.14-12.48,4.38-5.01-1.19-13.74-9.33-10.92-14.99,15.07-30.32,27.48-60.36,36.37-92.75,11.03-40.17,18.93-81.89,16.91-123.77-.35-7.27,3.88-12.61,11.18-13.78,5.24-.84,13.39,1.8,14.43,9.28.47,3.34.95,8.01,1.02,11.65,1.27,69.95-22.44,158.52-56.51,219.96Z"/>
      <path d="M120.76,614.02l-1.86-11.61-2.9-16c-.83-4.56-1.72-9.15-2.9-13.56l-4.49-16.82-3.91-13.94-5.74-18.73c-.93-3.04-1.63-9.21-.88-12.12,1.73-6.76,9.18-8.9,15.09-8.43,5.97.47,9.32,6.72,11.19,12.89l5.17,17.07,3.2,11c19.94,68.62,26.2,127.81-9.11,191.63-4.14,7.48-9.14,14.97-19.11,12.51-7.77-1.92-10.14-9.3-8.69-17.46,22.06-34.26,31.54-75.38,24.96-116.42Z"/>
      <path d="M136.98,149.17c3.52-5.54,7.26-8.9,10.95-12.53l7.8-7.7c5.57-5.5,10.74-10.66,17.11-15.23l19.63-14.07c9.03-6.47,31.02-17.62,41.92-22.38,13.27-5.8,37.87-13.61,51.9-16.42l13.21-2.65c11.11-2.23,28.57-4.07,40.24-4.39,5.42-.15,9.9,6.64,10.45,11.57s-.69,12.87-7.63,13.79l-35.08,4.65c-4.46.59-9.44,1.57-13.92,2.68l-15.8,3.9c-5.92,1.46-12.29,3.54-17.88,5.64l-12.3,4.61c-4.2,1.58-8.26,3.58-12.33,5.57-31.89,15.58-54.8,33.22-79.47,59.63-2.77,2.97-12.31,1.4-15.52-1.49s-5.62-11.46-3.27-15.15Z"/>
      <path d="M338.96,837.05c-4.56,13.42-18.65,52.45-26.75,62.24-3.62,4.37-10.73,3.6-14.7,1.12s-9.63-8.22-6.85-14.24c24.64-53.44,41.29-109.09,50.13-166.73,3.62-4.54,10.96-7.58,15.71-5.81,4.46,1.66,10.21,7.09,9.37,13.4-5.02,37.68-14.66,73.95-26.91,110.03Z"/>
      <path d="M569.05,860.73c-2.66,3.06-10.8,4.1-14.65,1.96-3.25-1.8-6.45-6.95-8.09-10.76,9.28-49.33,13.67-97.98,15.51-148.15.13-3.42.7-7.98,2.08-10.25,1.65-2.72,14.86-10.25,21.53-.23,2.68,4.03,3.03,9.86,2.79,15.13-2.02,45.37-5.63,89.78-13.49,134.63-1.11,6.34-1.28,12.6-5.68,17.66Z"/>
      <path d="M174.56,826.53c-4.65-2-7.74-4.98-9.15-7.77-2.05-4.05-.56-8.99,1.78-12.72,27.69-44.09,34.05-75.02,43.53-124.84,1.46-7.67,14.12-10,19.18-6.14,7.19,5.47,6.16,13.07,4.89,20.66-7.68,46.12-20.73,89.78-48.71,128.03-2.12,2.89-8.17,4.23-11.54,2.78Z"/>
      <path d="M498.94,739.47c-.46,6.7-8.39,8.48-13.3,8.79-4.21.27-12.45-4.03-12.28-10.51,1.09-40.44,1.08-80.63-1.42-121.43l-.69-11.32c-.22-3.57,2.02-10.04,5.52-12.24,4.53-2.85,12.42-1.86,15.62.72,4.93,3.97,5.55,10.49,5.84,16.05l.79,15.42c1.97,38.3,2.54,76.18-.08,114.52Z"/>
      <path d="M457.86,232.41c-9.74-4.55-18.45-10.82-27.52-16.11-23.99-13.98-40.24-18.05-67.57-23.37-4.28-.84-8.18-2.18-9.92-4.54-2.34-3.17-3.1-9.44-2.1-13.02,2.62-9.32,13.05-9.94,20.97-8.03l25.53,6.16c24.91,6.01,47.22,19.25,68.82,33.06,6.31,4.04,9.14,7.87,8.59,16.31-.37,5.73-8.6,13.37-16.8,9.54Z"/>
      <path d="M440.85,896.39l8.44-28.11c3.69-12.29,6.36-24.7,8.68-37.31l4.57-24.83c1.5-8.16,4.32-13.78,12.47-14.82,5.84-.75,15.37,4.91,14.31,13.19-3.61,27.96-14.04,76.87-25.04,101.62-3.19,7.17-10.81,7.94-16.57,5.75-4.95-1.89-9.09-8.03-6.85-15.49Z"/>
    </g>
  </g>
</svg>