<?xml version="1.0" encoding="UTF-8"?>
<svg id="Layer_2" data-name="Layer 2" xmlns="http://www.w3.org/2000/svg" viewBox="0 0 728.23 583.85">
  <defs>
    <style>
      .cls-1 {
        stroke: #000;
        stroke-miterlimit: 10;
        stroke-width: 4px;
      }
    </style>
  </defs>
  <g id="Layer_1-2" data-name="Layer 1">
    <g>
      <g>
        <g>
          <polygon class="cls-1" points="239.71 299.98 36.12 299.91 195.76 30.99 44.7 30.92 44.66 2 246.51 2.08 86.6 271.46 239.68 271.58 239.71 299.98"/>
          <g>
            <polygon class="cls-1" points="458.86 159.45 313.91 159.47 313.82 271.54 463.43 271.59 463.26 300.05 285.86 299.93 285.88 2.04 463.23 2.02 463.22 30.94 313.86 30.94 313.82 131.02 458.85 131.03 458.86 159.45"/>
            <polygon class="cls-1" points="610.22 160.01 610.28 299.75 582.58 299.87 582.42 186.8 582.31 159.81 480.1 2.46 515.63 2.05 596.36 129.52 677.03 2.12 712 2.7 610.22 160.01"/>
          </g>
        </g>
        <path class="cls-1" d="M221.35,555.43c-.64,1.48-5.55.62-6.08-.74l-14.83-87.24-24.59,48.98c-3.18,6.33-1.76,13.54,4.83,16.9l1.85,3.08c.52.86-1.9,3.51-2.76,3.08l-28.89-14.63c-.91-.46-1.14-2.98-.74-3.53,2.91-3.93,12.15,5.03,17.93-6.08l26.26-50.47c8.12-15.6-13.27-20.54-2.46-23.28l18.66,9.42,13.74,80.53,21.14-48.58c2.15-4.94.27-10.35-4.37-12.89l-2.38-2.31c-.69-.67,1.34-3.84,2.43-3.44l26.32,9.47c.7.25,1.22,1.98.96,2.63-1.64,4.08-10.19-1.65-14.82,6.77-3.13,5.7-5.87,11.45-8.48,17.49l-23.73,54.86Z"/>
        <path class="cls-1" d="M2.1,395.44c-.53-.62,1.18-3.22,1.95-3.37,3.02-.61,8,8.61,14.57,3.21l48.25-39.59c10.43-8.56-5.9-14.57,3.85-17.09l25.23,27.55c9.86,10.76,14.31,25.44,9.84,39.43-5,15.69-17.99,28.39-34.07,32.67-15.58,4.15-32.04-1.27-43.17-12.76-9.16-9.46-17.49-19.67-26.45-30.05ZM66.78,426.84c11.89-5.93,21.28-14.62,27.07-26.06,7.96-15.75,1.54-30.29-12.38-41.18l-49.44,42.05c-3.11,2.64-6.71,7.22-4.95,11.35,6.53,15.28,24.59,21.38,39.7,13.84Z"/>
        <path class="cls-1" d="M375.48,536.26c-4.55-1.81-9.63-1.38-14.24-1.14l-1.99,33.16c-.62,10.41,19.06,8.1,26.19,7.5,15.64-1.32,15.6-28.38,23.02-21.83l-3.59,27.6c-22.98.41-47.59.5-69.62-.37-1.32-.05-2.13-3.11-1.59-3.72,2.32-2.64,11.97-.52,12.5-7.81l5.22-71.08c.23-3.12-4.74-5.14-6.83-5.96l-3.27-1.28c-.85-.33.11-3.98,1.56-3.93,17.05.5,39.7.58,58.32-.1l1.06,21.19c-5.94,7.68-6.02-15.23-18.34-15.19l-20.2.07-2.1,35.91c4.7.22,9.35.29,13.55-.94,4.11-1.2,5.68-6.07,6.99-9.6l1.25-3.38c.28-.75,3.28.23,3.84.87l-.85,32.83c-.02.9-2.59,2.02-3.34,1.68-3.44-1.5-1.16-11.94-7.57-14.49Z"/>
        <path class="cls-1" d="M132.73,474.55l-24.88-17.8c-6.47,4.23-12.52,8.02-17.91,12.74-6.2,5.43,11.79,14.06,1.73,16.17l-24.1-19.33c.82-9.48,6.92,3.19,17.66-3.52l67.52-42.19c1.59-.99,3.07-1.86,4.13-2.25s4.35,2.11,3.97,3.52l-21.76,79.11c-3.5,12.72,11.57,14.91,2.1,18.56l-28.49-18.78c-1.01-.67-.25-3.33.47-3.84,2.27-1.59,11.41,5.43,13.01-.02l6.55-22.37ZM134.31,468.04l10.19-34.85-31.09,19.82,20.9,15.03Z"/>
        <path class="cls-1" d="M291.92,490.59c-20.49,14.73-30,67.86-3.89,77.36,13.87,5.05,24.15-1.95,32.63-14.24.81.21,2.94,1.59,4.01,2.56-4.61,8.24-10.91,15.67-19.98,18.87-18.86,6.66-38.85-4.3-44.6-23.32-7.31-24.2,5.26-57.83,27.92-68.2,13.41-6.14,28.35-3.87,38.67,7.18,1.83-3,3.62-6.19,7.44-3.97l-4.75,28.84c-.14.84-2.66,1.67-3.32,1.3-3.42-1.92-.34-13.12-7.06-22.92-6.11-8.91-18.52-9.61-27.08-3.46Z"/>
      </g>
      <g>
        <path class="cls-1" d="M689.08,450.71c-.77.83-3.73-1.23-3.47-2.1,1.5-5.07,6.95-8.91,1.03-15.32l-43.01-46.66c-6.91-7.5-12.04,2.15-14.61-.24-1.23-1.14-.88-3.25.21-4.39l25.5-26.57c5.13-5.34,12.69-8.2,19.78-6.59,6.78,1.55,11.65,7.18,13.71,11.86,3.26,7.43.94,13.68-1.46,21.27,7.2-4.63,13.81-8.27,21.83-6.31,13.39,3.27,20.64,17.06,16.47,30.25-2.15,6.77-5.91,12.49-11.05,18.02l-24.93,26.8ZM679.29,385.58c4.35-7.84,1.44-15.1-4.08-20.65-4.69-4.71-11.66-8.02-17.8-3.66-4,2.84-7.39,6.82-10.61,10.8l23.2,24.44c3.5-3.37,6.98-6.77,9.29-10.93ZM697.11,424.31c3.85,3.57,9.13-.72,11.44-2.83,9.54-8.72,8.76-20.46.28-29.34-6.37-6.67-15.47-9.26-23.4-2.72-3.94,3.25-7.58,7.45-11.02,11.75,7.77,8.23,14.63,15.66,22.69,23.14Z"/>
        <path class="cls-1" d="M587.37,416.93c.91-.61,3.64,1.39,3.31,2.17-1.66,3.84-8.45,6.59-3.78,13.99l20.94,33.21c2.92,4.63,6.2,9.18,9.69,13.03,6.81,7.52,16.49,7.64,24.5,2.39,10.96-7.18,14.22-20.13,6.82-31.62-8.72-13.54-18.43-26.48-28.33-39.38-6.73-8.77-14.02-.62-17.13-2.25-.71-.37-1.24-2.89-.53-3.5l21.11-18.01c.79-.67,2.81-.18,3.21.48,2.63,4.3-8.77,8.62-1.33,18.92l27.01,37.43c12.21,16.92,6.91,37.7-10.47,48.05-13.92,8.29-30.42,5.3-39.22-9.12l-26.03-42.62c-5.89-9.64-15.24,2.52-14.94-5.49.03-.78,1.21-1.52,2.54-2.42l22.63-15.28Z"/>
        <path class="cls-1" d="M492.23,558.27c14.42-.8,21.85-13.87,23.18-27.75.96-.04,3.06.2,3.97.78,1.92,1.2-.33,26.4-20.65,33.88-13.74,5.06-27.35,1.55-37.26-8.82-18.28-19.12-20.65-57.03-2.46-75.67,9.69-9.93,22.99-13.25,36.13-8.31.55-3.71,1.01-6.47,4.97-6.56l7.59,27.61c.23.84-1.99,2.63-2.8,2.51-3.7-.55-6.32-12.31-16.15-17.46s-21.29.49-25.77,10.23c-11.05,23.99,2.4,71.06,29.26,69.57Z"/>
        <path class="cls-1" d="M590.04,492.77l9.67,26.36c-18.8,10.63-40.9,21.17-59.47,29.76-1.4.65-3.45-1.55-3.23-2.41.97-3.78,10.33-5.2,7.06-13.81l-24.18-63.66c-1.96-5.16-10.55-1.64-12.91-3.24-.9-.62-.05-3.5,1.13-4.04l27.77-12.86c7,5.81-8.78,6.21-4.81,16.13l24.29,60.6c1.72,4.3,6.26,6.62,10.43,4.65,5.5-2.6,12.24-5.23,16.34-9.75,5.35-5.9,4.02-14.8,3.9-22.12l-.07-4.14c-.02-1,2.79-1.69,4.09-1.47Z"/>
      </g>
    </g>
  </g>
</svg>