<?xml version="1.0" encoding="UTF-8"?>
<svg xmlns="http://www.w3.org/2000/svg" viewBox="0 0 80 80">
  <path fill="#ed1a37" d="M35.66,12.94c-7.57,0-14.85,3.21-19.97,8.8-2.26,2.47-6.1,2.64-8.58.38-1.26-1.15-1.97-2.71-1.97-4.3,0-2.7,1.57-4.33,2.57-5.31C11.58,8.73,20.85.8,35.66.8c21.62,0,39.2,17.59,39.2,39.2s-17.59,39.2-39.2,39.2c-14.8,0-24.08-7.93-27.95-11.72-1-.98-2.57-2.61-2.57-5.31,0-1.58.71-3.15,1.97-4.3,2.47-2.26,6.31-2.09,8.58.38,5.12,5.59,12.4,8.8,19.97,8.8,6.01,0,11.29-1.8,15.78-5.07,3.09-2.26,3.7-4.06,3.7-5.85,0-1.4-.51-2.78-1.38-3.78-1.17-1.34-2.73-2.08-4.51-2.08-1.4,0-2.87.65-4.13,1.47-2.9,1.89-5.96,3.24-9.46,3.24-8.26,0-14.99-6.72-14.99-14.99s6.73-14.99,14.99-14.99c3.5,0,6.57,1.35,9.46,3.24,1.26.82,2.73,1.47,4.13,1.47,1.78,0,3.33-.73,4.51-2.08.87-1,1.38-2.38,1.38-3.78,0-1.79-.61-3.59-3.7-5.85-4.48-3.27-9.76-5.07-15.78-5.07"/>
</svg>