<?xml version="1.0" encoding="UTF-8"?>
<svg id="Layer_2" data-name="Layer 2" xmlns="http://www.w3.org/2000/svg" viewBox="0 0 705 705">
  <defs>
    <style>
      .cls-1 {
        fill: #ed2024;
      }
    </style>
  </defs>
  <g id="Layer_1-2" data-name="Layer 1">
    <g id="_9RmDPe.tif" data-name="9RmDPe.tif">
      <g>
        <path class="cls-1" d="M705,352.5c0,194.68-157.82,352.5-352.5,352.5S0,547.18,0,352.5,157.82,0,352.5,0s352.5,157.82,352.5,352.5ZM659.86,352.51c0-169.57-137.5-307.04-307.11-307.04S45.64,182.94,45.64,352.51s137.5,307.04,307.11,307.04,307.11-137.47,307.11-307.04Z"/>
        <path class="cls-1" d="M385.18,463.65c-32.09,15.96-70.14,15.15-100.48-1.68-23.74-13.18-34.44-37-31.57-63.4,2.56-23.55,21.05-44.79,46.46-51.13-19.82-9.92-33.88-24.74-37.47-43.1-4.08-20.87,2.96-42.47,20.53-56.19,31.14-24.33,77.75-24.37,109.19-.22,21.35,16.39,28.05,45.17,15.93,68.12-7.23,13.69-19.43,21.41-33.19,30.29,26,7.91,43.13,29.11,45.86,52.76,3.09,26.77-9.65,51.81-35.27,64.56ZM336.46,327.84c17.7.61,29.52-15.38,29.25-30.41-.29-16.14-13.53-30.83-30.73-29.33-16.45,1.44-26.64,16.46-25.72,31.48.84,13.77,10.61,27.69,27.2,28.26ZM371.68,402.82c0-19.31-15.66-34.97-34.98-34.97s-34.98,15.66-34.98,34.97,15.66,34.97,34.98,34.97,34.98-15.66,34.98-34.97Z"/>
        <path class="cls-1" d="M167.95,290.7c-17.16,11-31.9,17.25-50.95,19.76l-.3-44.36c27.05-8.76,49-19.65,71.67-36.1l31.63-.24v245.24s-52-.22-52-.22l-.05-184.08Z"/>
        <polygon class="cls-1" points="535.75 424 493 424.4 492.95 371 440 370.47 439.87 329 492 328.39 492.31 276 536 275.65 536.38 328 588 328.64 587.79 371 536 371.39 535.75 424"/>
      </g>
    </g>
  </g>
</svg>